<svg width="10" height="18" viewBox="0 0 10 18" fill="none" xmlns="http://www.w3.org/2000/svg">
<path d="M9.38393 16.955C9.61827 16.7206 9.74992 16.4027 9.74992 16.0713C9.74992 15.7398 9.61827 15.4219 9.38393 15.1875L3.19643 9L9.38393 2.8125C9.61163 2.57675 9.73762 2.26099 9.73477 1.93325C9.73193 1.6055 9.60047 1.29199 9.36871 1.06023C9.13695 0.828466 8.82343 0.697006 8.49568 0.694158C8.16794 0.691311 7.85218 0.817302 7.61643 1.045L0.545182 8.11625C0.310843 8.35066 0.179199 8.66855 0.179199 9C0.179199 9.33146 0.310843 9.64934 0.545182 9.88375L7.61643 16.955C7.85084 17.1893 8.16873 17.321 8.50018 17.321C8.83164 17.321 9.14952 17.1893 9.38393 16.955Z" fill="white"/>
</svg>
