<svg width="10" height="18" viewBox="0 0 10 18" fill="none" xmlns="http://www.w3.org/2000/svg">
<path d="M0.616068 16.955C0.381729 16.7206 0.250085 16.4027 0.250085 16.0713C0.250085 15.7398 0.381729 15.4219 0.616068 15.1875L6.80357 9L0.616069 2.8125C0.388371 2.57675 0.262378 2.26099 0.265226 1.93325C0.268074 1.6055 0.399535 1.29199 0.631295 1.06023C0.863055 0.828466 1.17657 0.697006 1.50432 0.694158C1.83206 0.691311 2.14782 0.817302 2.38357 1.045L9.45482 8.11625C9.68916 8.35066 9.8208 8.66855 9.8208 9C9.8208 9.33146 9.68916 9.64934 9.45482 9.88375L2.38357 16.955C2.14916 17.1893 1.83127 17.321 1.49982 17.321C1.16836 17.321 0.850477 17.1893 0.616068 16.955Z" fill="white"/>
</svg>
